<svg viewBox="0 0 35 30" fill="none" xmlns="http://www.w3.org/2000/svg"><path d="M6.982 4.433a.782.782 0 110-1.564.782.782 0 010 1.564z" fill="#000"/><path d="M11.412 28.911c.146-.507.543-1.148.978-1.593a3.725 3.725 0 011.567-.957 4.708 4.708 0 00.9-2.315 7.523 7.523 0 01-3.514-4.515c-.735-.182-2.2-.684-2.911-1.894a1.415 1.415 0 00-.358.395.643.643 0 01-.886.19 1.205 1.205 0 00-1.364.078.642.642 0 01-1.03-.361 2.873 2.873 0 01.171-1.816c.253-.57.684-1.04 1.228-1.34a7.209 7.209 0 01-.909-3.489C3.883 10.988.88 10.142.522 8.46a9.606 9.606 0 01-.321-2.161.651.651 0 01.55-.55.639.639 0 01.275.022c1.123.327 2.276.54 3.441.634a8.05 8.05 0 01-.265-.237C2.957 5.006 1.982 4.617.726 4.78a.638.638 0 01-.669-.375A.651.651 0 010 4.139c0-.122.025-3 2.152-3.864 1.356-.55 2.061-.157 2.628.16.249.17.538.272.838.293.114.003.25 0 .4 0C7.514.714 11.01.681 11.567 4.303c.05.32.092.624.134.915.392 2.76.538 3.793 3.658 4.506 4.042.923 7.643 2.315 10.791 10.037a3.08 3.08 0 001.081 1.476c.5.37 1.101.578 1.722.596.7.027 1.394-.139 2.007-.48a3.852 3.852 0 001.47-1.458c.504-1.013.302-2.135-.585-3.247a.651.651 0 01.066-.883.64.64 0 01.88.01c.095.092 2.342 2.294 2.203 5.046-.077 1.547-.88 2.932-2.385 4.115a7.237 7.237 0 01-4.583 1.621c-2.395 0-4.703-1.104-6.5-2.294-.006.447.094.888.29 1.289a.651.651 0 01-.01.584 7.141 7.141 0 00-.719 2.775c0 .172.12.967 0 1.089h-9.82c0-.172 0-.582.146-1.089zm20.406-4.996c1.196-.94 1.832-2.001 1.891-3.153.01-.184.005-.368-.013-.55-.039.095-.08.185-.12.264a5.132 5.132 0 01-1.963 1.993 5.08 5.08 0 01-2.71.658 4.323 4.323 0 01-2.408-.829 4.375 4.375 0 01-1.535-2.045c-2.919-7.159-6.07-8.395-9.886-9.267-3.983-.91-4.247-2.77-4.647-5.585-.04-.286-.083-.585-.132-.9-.357-2.32-2.387-2.497-4.266-2.48-.165 0-.313.003-.44 0a2.883 2.883 0 01-1.436-.454c-.458-.257-.735-.412-1.523-.092-.835.339-1.153 1.305-1.274 1.974 1.299.028 2.448.583 3.716 1.766 1.1 1.026 1.768.991 1.75.995a.639.639 0 01.732.49.652.652 0 01-.439.768c-1.784.527-4.203.1-5.52-.211.043.24.102.545.183.928.17.801 2.608 1.644 4.302 1.944a.652.652 0 01.525.725c-.2 1.471.445 2.838.814 3.48a5.79 5.79 0 011.856-.308.638.638 0 01.566.45.652.652 0 01-.43.817.639.639 0 01-.253.023 6.403 6.403 0 00-1.803.398c-.006.002-.013 0-.02.003a.147.147 0 01-.028.012 1.572 1.572 0 00-1.222 1.053 2.51 2.51 0 011.259.095 1.83 1.83 0 011.542-.643.642.642 0 01.51.435c.262.792 1.11 1.23 1.76 1.456a6.782 6.782 0 01.819-3.34.648.648 0 01.637-.326.64.64 0 01.544.469.653.653 0 01-.058.493 5.648 5.648 0 00-.598 3.427 6.206 6.206 0 001.162 2.487 6.15 6.15 0 002.117 1.734.644.644 0 01.389.612 5.857 5.857 0 01-1.38 3.694.643.643 0 01-.297.178 2.471 2.471 0 00-1.653 1.358h3.256c.313-2.358 1.638-4.506 2.186-5.31a5.157 5.157 0 01-.433-2.627 4.636 4.636 0 01.164-2.68 4.599 4.599 0 011.62-2.131.639.639 0 01.894.126.651.651 0 01-.114.903c-.532.37-.943.892-1.18 1.498a3.305 3.305 0 00-.151 1.906c.903.928 7.54 7.41 12.738 3.32zm-11.286 1.909a4.125 4.125 0 01-.195-2.41 22.454 22.454 0 01-1.08-.886c.082.288.195.565.335.829a.653.653 0 01-.055.699c-.02.025-1.746 2.334-2.143 4.854h2.41a8.296 8.296 0 01.728-3.085v-.001z" fill="#000"/></svg>