<svg width="199" height="19" fill="none" xmlns="http://www.w3.org/2000/svg"><path d="M10.664 10.945L8.051 3.34l-2.778 7.605h5.391zM6.832.785h2.637L15.715 18H13.16l-1.746-5.156H4.605L2.742 18H.352L6.832.785zM25.84 8.672c1.094 0 1.957-.219 2.59-.656.64-.438.96-1.227.96-2.368 0-1.226-.445-2.062-1.335-2.507-.477-.235-1.114-.352-1.91-.352h-5.696v5.883h5.39zM18.117.785h7.969c1.312 0 2.395.192 3.246.574 1.617.735 2.426 2.09 2.426 4.067 0 1.031-.215 1.875-.645 2.531-.422.656-1.015 1.184-1.781 1.582.672.274 1.176.633 1.512 1.078.343.445.535 1.168.574 2.168l.082 2.309c.023.656.078 1.144.164 1.465.14.546.39.898.75 1.054V18h-2.86a2.152 2.152 0 01-.187-.574c-.047-.235-.086-.688-.117-1.36l-.14-2.87c-.055-1.126-.473-1.88-1.255-2.262-.445-.211-1.144-.317-2.097-.317h-5.309V18h-2.332V.785zm17.004 0h3.34l4.945 14.555L48.316.785h3.305V18h-2.215V7.84c0-.352.008-.934.024-1.746.015-.813.023-1.684.023-2.614L44.543 18h-2.309L37.29 3.48v.528c0 .422.008 1.066.023 1.933.024.86.036 1.493.036 1.899V18H35.12V.785zm28.887 10.16L61.395 3.34l-2.778 7.605h5.39zM60.176.785h2.636L69.06 18h-2.555l-1.746-5.156h-6.809L56.086 18h-2.39L60.175.785zM78.62.34c1.617 0 3.016.312 4.195.937 1.711.899 2.758 2.473 3.141 4.723h-2.309c-.28-1.258-.863-2.172-1.746-2.742-.883-.578-1.996-.867-3.34-.867-1.593 0-2.937.597-4.03 1.793-1.087 1.195-1.63 2.976-1.63 5.343 0 2.047.45 3.715 1.348 5.004.898 1.281 2.363 1.922 4.394 1.922 1.555 0 2.84-.45 3.856-1.348 1.023-.906 1.547-2.367 1.57-4.382h-5.39V8.789h7.558V18h-1.5l-.562-2.215c-.79.867-1.489 1.469-2.098 1.805-1.023.578-2.324.867-3.902.867-2.04 0-3.793-.66-5.262-1.98-1.602-1.657-2.402-3.93-2.402-6.82 0-2.884.781-5.177 2.344-6.88C74.34 1.152 76.262.34 78.62.34zm18.68 0c1.617 0 3.015.312 4.195.937 1.711.899 2.758 2.473 3.141 4.723h-2.309c-.281-1.258-.863-2.172-1.746-2.742-.883-.578-1.996-.867-3.34-.867-1.594 0-2.937.597-4.031 1.793-1.086 1.195-1.629 2.976-1.629 5.343 0 2.047.45 3.715 1.348 5.004.898 1.281 2.363 1.922 4.394 1.922 1.555 0 2.84-.45 3.856-1.348 1.023-.906 1.547-2.367 1.57-4.382h-5.39V8.789h7.558V18h-1.5l-.563-2.215c-.789.867-1.488 1.469-2.097 1.805-1.024.578-2.324.867-3.902.867-2.04 0-3.793-.66-5.262-1.98-1.602-1.657-2.403-3.93-2.403-6.82 0-2.884.782-5.177 2.344-6.88C93.02 1.152 94.941.34 97.301.34zm11.461.445h12.55v2.11h-10.277V8.12h9.504v1.992h-9.504v5.836h10.453V18h-12.726V.785zm22.394 15.223c.789 0 1.438-.082 1.946-.246.906-.305 1.648-.89 2.226-1.758.461-.695.793-1.586.996-2.672.117-.648.176-1.25.176-1.805 0-2.132-.426-3.789-1.277-4.968-.844-1.18-2.207-1.77-4.09-1.77h-4.137v13.219h4.16zM124.652.785h6.973c2.367 0 4.203.84 5.508 2.52 1.164 1.515 1.746 3.457 1.746 5.824 0 1.828-.344 3.48-1.031 4.957-1.211 2.61-3.293 3.914-6.246 3.914h-6.95V.785zM149.32.316c3.039 0 5.289.977 6.75 2.93 1.141 1.524 1.711 3.473 1.711 5.848 0 2.57-.652 4.707-1.957 6.41-1.531 2-3.715 3-6.551 3-2.648 0-4.73-.875-6.246-2.625C141.676 14.19 141 12.059 141 9.48c0-2.328.578-4.32 1.734-5.976 1.485-2.125 3.68-3.188 6.586-3.188zm.235 16.102c2.054 0 3.539-.734 4.453-2.203.922-1.477 1.383-3.172 1.383-5.086 0-2.024-.532-3.652-1.594-4.887-1.055-1.234-2.5-1.851-4.336-1.851-1.781 0-3.234.613-4.359 1.84-1.125 1.218-1.688 3.019-1.688 5.402 0 1.906.481 3.515 1.441 4.828.969 1.305 2.536 1.957 4.7 1.957zM160.57.785h2.754l8.696 13.945V.785h2.214V18h-2.613l-8.824-13.934V18h-2.227V.785zm25.383 0l4.945 14.66 4.887-14.66h2.613L192.117 18h-2.472L183.375.785h2.578z" fill="#000"/></svg>