<svg width="298" height="28" fill="none" xmlns="http://www.w3.org/2000/svg"><path d="M15.996 16.418L12.076 5.01 7.91 16.418h8.086zm-5.748-15.24h3.955L23.573 27H19.74l-2.619-7.734H6.908L4.113 27H.527l9.721-25.822zm28.512 11.83c1.64 0 2.935-.328 3.885-.985.96-.656 1.44-1.84 1.44-3.55 0-1.84-.667-3.094-2.003-3.762-.715-.352-1.67-.527-2.865-.527h-8.543v8.824h8.086zM27.176 1.178h11.953c1.969 0 3.592.287 4.869.861 2.426 1.102 3.639 3.135 3.639 6.1 0 1.547-.322 2.812-.967 3.796-.633.985-1.523 1.776-2.672 2.374 1.008.41 1.764.949 2.268 1.617.515.668.802 1.752.861 3.252l.123 3.463c.035.984.117 1.716.246 2.197.211.82.586 1.348 1.125 1.582V27h-4.289a3.226 3.226 0 01-.281-.861c-.07-.352-.13-1.032-.176-2.04l-.21-4.306c-.083-1.688-.71-2.818-1.882-3.393-.668-.316-1.717-.474-3.146-.474h-7.963V27h-3.498V1.178zm25.506 0h5.01l7.417 21.832 7.366-21.832h4.957V27h-3.323V11.76c0-.528.012-1.4.035-2.62.024-1.218.036-2.525.036-3.92L66.814 27h-3.462L55.934 5.22v.792c0 .633.011 1.6.035 2.9.035 1.29.053 2.238.053 2.848V27h-3.34V1.178zm43.33 15.24L92.092 5.01l-4.166 11.408h8.086zm-5.748-15.24h3.955L103.588 27h-3.832l-2.62-7.734H86.925L84.129 27h-3.586l9.72-25.822zM117.932.51c2.425 0 4.523.469 6.293 1.406 2.566 1.348 4.136 3.709 4.711 7.084h-3.463c-.422-1.887-1.295-3.258-2.619-4.113-1.325-.867-2.995-1.301-5.01-1.301-2.391 0-4.406.896-6.047 2.69-1.629 1.792-2.443 4.464-2.443 8.015 0 3.07.673 5.572 2.021 7.506 1.348 1.922 3.545 2.883 6.592 2.883 2.332 0 4.26-.674 5.783-2.022 1.535-1.36 2.32-3.55 2.355-6.574h-8.085v-2.9h11.337V27h-2.25l-.843-3.322c-1.184 1.3-2.233 2.203-3.147 2.707-1.535.867-3.486 1.3-5.853 1.3-3.059 0-5.69-.99-7.893-2.97-2.402-2.485-3.603-5.895-3.603-10.23 0-4.325 1.171-7.764 3.515-10.319 2.227-2.437 5.11-3.656 8.649-3.656zm28.019 0c2.426 0 4.524.469 6.293 1.406 2.567 1.348 4.137 3.709 4.711 7.084h-3.463c-.422-1.887-1.295-3.258-2.619-4.113-1.324-.867-2.994-1.301-5.01-1.301-2.39 0-4.406.896-6.047 2.69-1.628 1.792-2.443 4.464-2.443 8.015 0 3.07.674 5.572 2.022 7.506 1.347 1.922 3.544 2.883 6.591 2.883 2.332 0 4.26-.674 5.784-2.022 1.535-1.36 2.32-3.55 2.355-6.574h-8.086v-2.9h11.338V27h-2.25l-.844-3.322c-1.183 1.3-2.232 2.203-3.146 2.707-1.535.867-3.487 1.3-5.854 1.3-3.058 0-5.689-.99-7.892-2.97-2.403-2.485-3.604-5.895-3.604-10.23 0-4.325 1.172-7.764 3.516-10.319 2.226-2.437 5.109-3.656 8.648-3.656zm17.192.668h18.826v3.164h-15.416v7.84h14.256v2.988h-14.256v8.754h15.679V27h-19.089V1.178zm33.591 22.834c1.184 0 2.157-.123 2.918-.37 1.36-.456 2.473-1.335 3.34-2.636.692-1.043 1.19-2.379 1.494-4.008.176-.973.264-1.875.264-2.707 0-3.2-.639-5.684-1.916-7.453-1.266-1.77-3.311-2.654-6.135-2.654h-6.205v19.828h6.24zm-9.755-22.834h10.459c3.55 0 6.304 1.26 8.261 3.779 1.746 2.273 2.619 5.186 2.619 8.736 0 2.743-.515 5.221-1.547 7.436-1.816 3.914-4.939 5.871-9.369 5.871h-10.423V1.178zM223.98.475c4.559 0 7.934 1.464 10.125 4.394 1.711 2.285 2.567 5.21 2.567 8.772 0 3.855-.979 7.06-2.936 9.615-2.297 3-5.572 4.5-9.826 4.5-3.972 0-7.096-1.313-9.369-3.938-2.027-2.53-3.041-5.73-3.041-9.597 0-3.492.867-6.48 2.602-8.965 2.226-3.188 5.519-4.781 9.878-4.781zm.352 24.152c3.082 0 5.309-1.102 6.68-3.305 1.383-2.215 2.074-4.758 2.074-7.629 0-3.035-.797-5.478-2.391-7.33-1.582-1.851-3.75-2.777-6.504-2.777-2.671 0-4.851.92-6.539 2.76-1.687 1.828-2.531 4.529-2.531 8.103 0 2.86.721 5.274 2.162 7.242 1.453 1.957 3.803 2.936 7.049 2.936zm16.523-23.45h4.131l13.043 20.919V1.178h3.323V27h-3.92L244.195 6.1V27h-3.34V1.178zm38.075 0l7.418 21.991 7.33-21.99h3.92L288.176 27h-3.709l-9.405-25.822h3.868z" fill="#000"/></svg>